<svg xmlns="http://www.w3.org/2000/svg" viewBox="0 0 11.35144 26.35693"><defs><style>.a{fill:#666;}</style></defs><title>icon_mail_sp</title><path class="a" d="M0,0V7.20007H11.35144V0ZM9.90466.80005,5.67542,4.34863,1.44617.80005ZM.80005,6.4V1.30225L5.41858,5.17773a.39868.39868,0,0,0,.51367,0l4.61914-3.876V6.4Z"/><path class="a" d="M3.54952,13.76637a.36946.36946,0,0,0,0,.52093l2.13177,2.14285L7.82044,14.291a.36945.36945,0,0,0-.52093-.52093L6.05075,15.01513v-2.7963a.36946.36946,0,0,0-.73892,0v2.80738L4.06307,13.77745A.36946.36946,0,0,0,3.54952,13.76637Z"/><path class="a" d="M5.67566,22.35693a1.5,1.5,0,1,1-1.5,1.5,1.50164,1.50164,0,0,1,1.5-1.5m0-1a2.5,2.5,0,1,0,2.5,2.5,2.5,2.5,0,0,0-2.5-2.5Z"/></svg>